<?xml version="1.0" standalone="no"?><!DOCTYPE svg PUBLIC "-//W3C//DTD SVG 1.1//EN" "http://www.w3.org/Graphics/SVG/1.1/DTD/svg11.dtd"><svg t="1678179823621" class="icon" viewBox="0 0 1024 1024" version="1.1" xmlns="http://www.w3.org/2000/svg" p-id="2934" id="mx_n_1678179823623" xmlns:xlink="http://www.w3.org/1999/xlink" width="200" height="200"><path d="M574.482286 105.142857H820.114286l108.196571 108.196572L896 245.650286 801.206857 150.857143h-226.742857v-45.714286z m-157.275429 344.393143L298.660571 330.971429l-128 128-32.310857-32.329143 128-128-22.857143-22.857143h45.714286l9.453714-9.472 9.490286 9.490286h341.321143l173.714286 173.714285H417.206857zM172.617143 531.876571l-22.784-1.938285-3.858286 45.549714 22.765714 1.938286c22.491429 1.901714 73.728 12.068571 118.948572 29.458285 22.619429 8.704 42.258286 18.669714 55.826286 29.330286 14.025143 11.008 17.645714 19.529143 17.627428 25.088 0 10.038857-3.053714 13.622857-5.668571 15.670857-3.84 3.017143-10.971429 5.668571-22.765715 6.838857-11.483429 1.115429-24.594286 0.585143-38.290285-0.402285l-9.344-0.713143h-0.018286a398.500571 398.500571 0 0 0-28.123429-1.572572c-18.834286-1.499429-53.339429-1.462857-84.333714 7.881143-15.872 4.790857-32.548571 12.507429-45.476571 25.307429-13.531429 13.385143-21.979429 31.36-21.979429 53.668571 0 25.728 15.140571 46.262857 34.066286 61.696 19.053714 15.542857 44.964571 28.598857 73.984 39.661715 58.294857 22.198857 134.857143 38.491429 210.249143 49.261714 75.940571 10.861714 172.946286 16.219429 250.441143 18.889143a4762.331429 4762.331429 0 0 0 134.034285 2.669714h25.6v-45.714286h-25.453714c-1.737143 0-4.297143 0-7.625143-0.036571a4698.477714 4698.477714 0 0 1-124.982857-2.614857c-77.165714-2.651429-172.16-7.954286-245.558857-18.450286-73.947429-10.550857-146.706286-26.258286-200.411429-46.72-26.989714-10.276571-47.725714-21.229714-61.366857-32.365714-13.732571-11.190857-17.261714-20.022857-17.261714-26.276572 0-9.691429 3.291429-16.091429 8.411428-21.156571 5.723429-5.668571 14.665143-10.477714 26.514286-14.043429 23.899429-7.204571 52.699429-7.350857 68.297143-6.034285l1.024 0.091428h1.042286c6.363429-0.036571 14.043429 0.548571 23.515428 1.298286 3.565714 0.292571 7.387429 0.585143 11.501715 0.877714 14.025143 1.005714 30.409143 1.810286 45.970285 0.292572 15.232-1.481143 32.658286-5.449143 46.573715-16.384 15.177143-11.922286 23.149714-29.622857 23.149714-51.602286 0-26.441143-16.859429-46.738286-35.108572-61.074286-18.706286-14.683429-43.117714-26.587429-67.657142-36.022857-49.078857-18.889143-104.521143-30.061714-131.474286-32.365714z m746.24-39.716571v-173.714286h-45.714286v173.714286h45.714286z m-341.339429 39.643429v131.035428h-45.714285v-131.035428h45.714285z m128 216.374857V531.803429h-45.714285v216.393142h45.714285z" fill="#5276ff" p-id="2935"></path></svg>